<?xml version="1.0" encoding="utf-8"?>
<svg width="379" height="515" viewBox="0 0 379 515" xmlns="http://www.w3.org/2000/svg">
<rect id="frame" x="0" y="0" width="379" height="515" fill="#f7f7f7" stroke="none" stroke-width="0"/>

<!-- Association appartient -->
<g class="page_0_3Z5tNy8G diagram_page" visibility="visible">
	<line x1="68" y1="279" x2="68" y2="178" stroke="#5aae61" stroke-width="2"/>
	<text x="73" y="229" fill="#762a83" font-family="Verdana" font-size="12">0,N</text>
	<line x1="207" y1="178" x2="68" y2="178" stroke="#5aae61" stroke-width="2"/>
	<text x="141" y="195" fill="#762a83" font-family="Verdana" font-size="12">0,N</text>
	<g>
		<path d="M93 153 a14 14 90 0 1 14 14 V178 h-78 V167 a14 14 90 0 1 14 -14" fill="#a6dba0" stroke="#a6dba0" stroke-width="0"/>
		<path d="M107 178 v11 a14 14 90 0 1 -14 14 H43 a14 14 90 0 1 -14 -14 V178 H78" fill="#d9f0d3" stroke="#d9f0d3" stroke-width="0"/>
		<rect x="29" y="153" width="78" height="50" fill="none" rx="14" stroke="#5aae61" stroke-width="2"/>
		<line x1="29" y1="178" x2="107" y2="178" stroke="#5aae61" stroke-width="1"/>
		<text x="37" y="170.75" fill="#000" font-family="Verdana" font-size="12">appartient</text>
	</g>
</g>

<!-- Association créé -->
<g class="page_0_3Z5tNy8G diagram_page" visibility="visible">
	<line x1="207" y1="60" x2="322" y2="178" stroke="#5aae61" stroke-width="2"/>
	<text x="236.65" y="128" fill="#762a83" font-family="Verdana" font-size="12">0,N</text>
	<line x1="207" y1="178" x2="322" y2="178" stroke="#5aae61" stroke-width="2"/>
	<text x="251" y="195" fill="#762a83" font-family="Verdana" font-size="12">1,1</text>
	<g>
		<path d="M329 153 a14 14 90 0 1 14 14 V178 h-42 V167 a14 14 90 0 1 14 -14" fill="#a6dba0" stroke="#a6dba0" stroke-width="0"/>
		<path d="M343 178 v11 a14 14 90 0 1 -14 14 H315 a14 14 90 0 1 -14 -14 V178 H42" fill="#d9f0d3" stroke="#d9f0d3" stroke-width="0"/>
		<rect x="301" y="153" width="42" height="50" fill="none" rx="14" stroke="#5aae61" stroke-width="2"/>
		<line x1="301" y1="178" x2="343" y2="178" stroke="#5aae61" stroke-width="1"/>
		<text x="309" y="170.75" fill="#000" font-family="Verdana" font-size="12">créé</text>
	</g>
</g>

<!-- Association possède -->
<g class="page_0_3Z5tNy8G diagram_page" visibility="visible">
	<line x1="207" y1="380" x2="207" y2="279" stroke="#5aae61" stroke-width="2"/>
	<text x="212" y="330" fill="#762a83" font-family="Verdana" font-size="12">1,1</text>
	<line x1="207" y1="178" x2="207" y2="279" stroke="#5aae61" stroke-width="2"/>
	<text x="212" y="237" fill="#762a83" font-family="Verdana" font-size="12">0,N</text>
	<g>
		<path d="M225 254 a14 14 90 0 1 14 14 V279 h-64 V268 a14 14 90 0 1 14 -14" fill="#a6dba0" stroke="#a6dba0" stroke-width="0"/>
		<path d="M239 279 v11 a14 14 90 0 1 -14 14 H189 a14 14 90 0 1 -14 -14 V279 H64" fill="#d9f0d3" stroke="#d9f0d3" stroke-width="0"/>
		<rect x="175" y="254" width="64" height="50" fill="none" rx="14" stroke="#5aae61" stroke-width="2"/>
		<line x1="175" y1="279" x2="239" y2="279" stroke="#5aae61" stroke-width="1"/>
		<text x="182" y="271.75" fill="#000" font-family="Verdana" font-size="12">possède</text>
	</g>
</g>

<!-- Association est composée de -->
<g class="page_0_3Z5tNy8G diagram_page" visibility="visible">
	<line x1="207" y1="380" x2="68" y2="380" stroke="#5aae61" stroke-width="2"/>
	<text x="132" y="397" fill="#762a83" font-family="Verdana" font-size="12">0,N</text>
	<line x1="68" y1="472" x2="68" y2="380" stroke="#5aae61" stroke-width="2"/>
	<text x="73" y="430" fill="#762a83" font-family="Verdana" font-size="12">1,1</text>
	<g>
		<path d="M113 355 a14 14 90 0 1 14 14 V380 h-118 V369 a14 14 90 0 1 14 -14" fill="#a6dba0" stroke="#a6dba0" stroke-width="0"/>
		<path d="M127 380 v11 a14 14 90 0 1 -14 14 H23 a14 14 90 0 1 -14 -14 V380 H118" fill="#d9f0d3" stroke="#d9f0d3" stroke-width="0"/>
		<rect x="9" y="355" width="118" height="50" fill="none" rx="14" stroke="#5aae61" stroke-width="2"/>
		<line x1="9" y1="380" x2="127" y2="380" stroke="#5aae61" stroke-width="1"/>
		<text x="17" y="372.75" fill="#000" font-family="Verdana" font-size="12">est composée de</text>
	</g>
</g>

<!-- Association concerne -->
<g class="page_0_3Z5tNy8G diagram_page" visibility="visible">
	<line x1="322" y1="279" x2="322" y2="380" stroke="#5aae61" stroke-width="2"/>
	<text x="327" y="330" fill="#762a83" font-family="Verdana" font-size="12">0,N</text>
	<line x1="207" y1="380" x2="322" y2="380" stroke="#5aae61" stroke-width="2"/>
	<text x="260" y="397" fill="#762a83" font-family="Verdana" font-size="12">0,1</text>
	<g>
		<path d="M343 355 a14 14 90 0 1 14 14 V380 h-70 V369 a14 14 90 0 1 14 -14" fill="#a6dba0" stroke="#a6dba0" stroke-width="0"/>
		<path d="M357 380 v11 a14 14 90 0 1 -14 14 H301 a14 14 90 0 1 -14 -14 V380 H70" fill="#d9f0d3" stroke="#d9f0d3" stroke-width="0"/>
		<rect x="287" y="355" width="70" height="50" fill="none" rx="14" stroke="#5aae61" stroke-width="2"/>
		<line x1="287" y1="380" x2="357" y2="380" stroke="#5aae61" stroke-width="1"/>
		<text x="295" y="372.75" fill="#000" font-family="Verdana" font-size="12">concerne</text>
	</g>
</g>

<!-- Association valide -->
<g class="page_0_3Z5tNy8G diagram_page" visibility="visible">
	<line x1="207" y1="380" x2="207" y2="472" stroke="#5aae61" stroke-width="2"/>
	<text x="212" y="439" fill="#762a83" font-family="Verdana" font-size="12">1,1</text>
	<line x1="68" y1="472" x2="207" y2="472" stroke="#5aae61" stroke-width="2"/>
	<text x="119" y="489" fill="#762a83" font-family="Verdana" font-size="12">0,1</text>
	<g>
		<path d="M219 447 a14 14 90 0 1 14 14 V472 h-52 V461 a14 14 90 0 1 14 -14" fill="#a6dba0" stroke="#a6dba0" stroke-width="0"/>
		<path d="M233 472 v11 a14 14 90 0 1 -14 14 H195 a14 14 90 0 1 -14 -14 V472 H52" fill="#d9f0d3" stroke="#d9f0d3" stroke-width="0"/>
		<rect x="181" y="447" width="52" height="50" fill="none" rx="14" stroke="#5aae61" stroke-width="2"/>
		<line x1="181" y1="472" x2="233" y2="472" stroke="#5aae61" stroke-width="1"/>
		<text x="189" y="464.75" fill="#000" font-family="Verdana" font-size="12">valide</text>
	</g>
</g>

<!-- Entity utilisateur -->
<g class="page_0_3Z5tNy8G diagram_page" visibility="visible">
	<g>
		<rect x="155" y="9" width="104" height="25" fill="#c2a5cf" stroke="#c2a5cf" stroke-width="0" opacity="1"/>
		<rect x="155" y="34" width="104" height="77" fill="#e7d4e8" stroke="#e7d4e8" stroke-width="0" opacity="1"/>
		<rect x="155" y="9" width="104" height="102" fill="none" stroke="#9970ab" stroke-width="2" opacity="1"/>
		<line x1="155" y1="34" x2="259" y2="34" stroke="#9970ab" stroke-width="1"/>
	</g>
	<text x="177" y="26.75" fill="#000" font-family="Verdana" font-size="12">utilisateur</text>
	<text x="160" y="51.8" fill="#000" font-family="Verdana" font-size="12">code utilisateur</text>
	<line x1="160" y1="54" x2="254" y2="54" stroke="#000" stroke-width="1"/>
	<text x="160" y="68.8" fill="#000" font-family="Verdana" font-size="12">pseudo</text>
	<text x="160" y="85.8" fill="#000" font-family="Verdana" font-size="12">email</text>
	<text x="160" y="102.8" fill="#000" font-family="Verdana" font-size="12">mot de passe</text>
</g>

<!-- Entity quiz -->
<g class="page_0_3Z5tNy8G diagram_page" visibility="visible">
	<g>
		<rect x="168" y="136" width="78" height="25" fill="#c2a5cf" stroke="#c2a5cf" stroke-width="0" opacity="1"/>
		<rect x="168" y="161" width="78" height="59" fill="#e7d4e8" stroke="#e7d4e8" stroke-width="0" opacity="1"/>
		<rect x="168" y="136" width="78" height="84" fill="none" stroke="#9970ab" stroke-width="2" opacity="1"/>
		<line x1="168" y1="161" x2="246" y2="161" stroke="#9970ab" stroke-width="1"/>
	</g>
	<text x="194" y="153.75" fill="#000" font-family="Verdana" font-size="12">quiz</text>
	<text x="173" y="178.8" fill="#000" font-family="Verdana" font-size="12">code quiz</text>
	<line x1="173" y1="181" x2="231" y2="181" stroke="#000" stroke-width="1"/>
	<text x="173" y="195.8" fill="#000" font-family="Verdana" font-size="12">nom</text>
	<text x="173" y="212.8" fill="#000" font-family="Verdana" font-size="12">description</text>
</g>

<!-- Entity theme -->
<g class="page_0_3Z5tNy8G diagram_page" visibility="visible">
	<g>
		<rect x="27" y="237" width="82" height="25" fill="#c2a5cf" stroke="#c2a5cf" stroke-width="0" opacity="1"/>
		<rect x="27" y="262" width="82" height="59" fill="#e7d4e8" stroke="#e7d4e8" stroke-width="0" opacity="1"/>
		<rect x="27" y="237" width="82" height="84" fill="none" stroke="#9970ab" stroke-width="2" opacity="1"/>
		<line x1="27" y1="262" x2="109" y2="262" stroke="#9970ab" stroke-width="1"/>
	</g>
	<text x="49" y="254.75" fill="#000" font-family="Verdana" font-size="12">theme</text>
	<text x="32" y="279.8" fill="#000" font-family="Verdana" font-size="12">code theme</text>
	<line x1="32" y1="282" x2="104" y2="282" stroke="#000" stroke-width="1"/>
	<text x="32" y="296.8" fill="#000" font-family="Verdana" font-size="12">nom</text>
	<text x="32" y="313.8" fill="#000" font-family="Verdana" font-size="12">description</text>
</g>

<!-- Entity difficulté -->
<g class="page_0_3Z5tNy8G diagram_page" visibility="visible">
	<g>
		<rect x="274" y="245" width="96" height="25" fill="#c2a5cf" stroke="#c2a5cf" stroke-width="0" opacity="1"/>
		<rect x="274" y="270" width="96" height="43" fill="#e7d4e8" stroke="#e7d4e8" stroke-width="0" opacity="1"/>
		<rect x="274" y="245" width="96" height="68" fill="none" stroke="#9970ab" stroke-width="2" opacity="1"/>
		<line x1="274" y1="270" x2="370" y2="270" stroke="#9970ab" stroke-width="1"/>
	</g>
	<text x="296" y="262.75" fill="#000" font-family="Verdana" font-size="12">difficulté</text>
	<text x="279" y="287.8" fill="#000" font-family="Verdana" font-size="12">code difficulté</text>
	<line x1="279" y1="290" x2="364" y2="290" stroke="#000" stroke-width="1"/>
	<text x="279" y="304.8" fill="#000" font-family="Verdana" font-size="12">nom</text>
</g>

<!-- Entity question -->
<g class="page_0_3Z5tNy8G diagram_page" visibility="visible">
	<g>
		<rect x="159" y="338" width="96" height="25" fill="#c2a5cf" stroke="#c2a5cf" stroke-width="0" opacity="1"/>
		<rect x="159" y="363" width="96" height="59" fill="#e7d4e8" stroke="#e7d4e8" stroke-width="0" opacity="1"/>
		<rect x="159" y="338" width="96" height="84" fill="none" stroke="#9970ab" stroke-width="2" opacity="1"/>
		<line x1="159" y1="363" x2="255" y2="363" stroke="#9970ab" stroke-width="1"/>
	</g>
	<text x="181" y="355.75" fill="#000" font-family="Verdana" font-size="12">question</text>
	<text x="164" y="380.8" fill="#000" font-family="Verdana" font-size="12">code question</text>
	<line x1="164" y1="383" x2="249" y2="383" stroke="#000" stroke-width="1"/>
	<text x="164" y="397.8" fill="#000" font-family="Verdana" font-size="12">description</text>
	<text x="164" y="414.8" fill="#000" font-family="Verdana" font-size="12">anecdotes</text>
</g>

<!-- Entity réponse -->
<g class="page_0_3Z5tNy8G diagram_page" visibility="visible">
	<g>
		<rect x="22" y="438" width="92" height="25" fill="#c2a5cf" stroke="#c2a5cf" stroke-width="0" opacity="1"/>
		<rect x="22" y="463" width="92" height="43" fill="#e7d4e8" stroke="#e7d4e8" stroke-width="0" opacity="1"/>
		<rect x="22" y="438" width="92" height="68" fill="none" stroke="#9970ab" stroke-width="2" opacity="1"/>
		<line x1="22" y1="463" x2="114" y2="463" stroke="#9970ab" stroke-width="1"/>
	</g>
	<text x="44" y="455.75" fill="#000" font-family="Verdana" font-size="12">réponse</text>
	<text x="27" y="480.8" fill="#000" font-family="Verdana" font-size="12">code réponse</text>
	<line x1="27" y1="483" x2="108" y2="483" stroke="#000" stroke-width="1"/>
	<text x="27" y="497.8" fill="#000" font-family="Verdana" font-size="12">description</text>
</g>
</svg>